Coordinates
version=1
nRows=13
nColumns=30
inDegrees=yes

Units are S.I. units (second, meters, Newtons, ...)
Angles are in degrees.

endheader
time	floatyaw	floatroll	floatpitch	floatx	floaty	floatz	pro_sup_l	deviation_l	flexion_l	cmc_flexion_l	cmc_abduction_l	mp_flexion_l	ip_flexion_l	2mcp_flexion_l	2mcp_abduction_l	2pm_flexion_l	2md_flexion_l	3mcp_flexion_l	3mcp_abduction_l	3pm_flexion_l	3md_flexion_l	4mcp_flexion_l	4mcp_abduction_l	4pm_flexion_l	4md_flexion_l	5mcp_flexion_l	5mcp_abduction_l	5pm_flexion_l	5md_flexion_l
-0.995000	-1.782892	-2.032873	94.941017	-0.007902	-0.271912	0.011830	89.843698	1.101772	-1.164214	26.011943	2.498866	-18.098517	-32.735688	20.258006	5.597846	31.775505	20.196579	9.186464	4.176301	34.497992	22.069391	-1.779854	-3.798359	51.070567	33.653615	-21.355742	-7.361216	60.473702	50.055448
-0.985000	-1.782892	-2.032873	94.941017	-0.007899	-0.271902	0.011837	89.831628	1.097132	-1.160347	25.985922	2.518565	-18.098099	-32.694750	20.250699	5.599732	31.792836	20.193715	9.148910	4.182316	34.531809	22.091005	-1.788969	-3.807236	51.067202	33.652670	-21.351415	-7.357153	60.463133	50.078597
-0.975000	-1.782892	-2.032873	94.941017	-0.007900	-0.271901	0.011861	89.818838	1.084963	-1.156497	25.960426	2.546705	-18.103079	-32.658445	20.239037	5.605106	31.799616	20.212710	9.107173	4.190473	34.556133	22.126864	-1.803526	-3.813800	51.059995	33.659549	-21.369093	-7.354102	60.451992	50.075469
-0.965000	-1.782892	-2.032873	94.941017	-0.007906	-0.271907	0.011898	89.812373	1.069296	-1.154351	25.938993	2.574995	-18.110233	-32.632853	20.224387	5.612790	31.798044	20.246237	9.065987	4.199488	34.573735	22.167697	-1.816798	-3.818754	51.049507	33.670367	-21.400884	-7.350423	60.437554	50.050265
-0.955000	-1.782892	-2.032873	94.941017	-0.007917	-0.271918	0.011941	89.816561	1.054048	-1.155619	25.924762	2.595673	-18.118263	-32.618087	20.209931	5.621116	31.790521	20.280702	9.033662	4.208131	34.583479	22.199399	-1.821695	-3.823169	51.033158	33.680255	-21.434191	-7.343600	60.413878	50.014984
-0.945000	-1.782892	-2.032873	94.941017	-0.007934	-0.271930	0.011983	89.831553	1.041506	-1.161180	25.919603	2.604796	-18.128375	-32.609637	20.200228	5.628686	31.777937	20.301850	9.019441	4.215231	34.580312	22.208758	-1.812650	-3.827532	51.006418	33.684985	-21.457058	-7.331522	60.377010	49.983877
-0.935000	-1.782892	-2.032873	94.941017	-0.007956	-0.271942	0.012020	89.853603	1.032014	-1.170638	25.922351	2.604475	-18.142295	-32.600408	20.200005	5.634799	31.759653	20.300835	9.029862	4.219829	34.558677	22.189343	-1.787437	-3.831327	50.966606	33.682357	-21.463610	-7.314175	60.330352	49.967613
-0.925000	-1.782892	-2.032873	94.941017	-0.007979	-0.271952	0.012049	89.876846	1.024886	-1.182343	25.928161	2.602182	-18.159666	-32.583232	20.212226	5.639332	31.734963	20.277829	9.065631	4.221522	34.517192	22.144698	-1.748265	-3.833421	50.916688	33.672867	-21.456481	-7.294745	60.285950	49.969518
-0.915000	-1.782892	-2.032873	94.941017	-0.007999	-0.271956	0.012066	89.895833	1.019802	-1.193909	25.930544	2.606976	-18.177102	-32.554065	20.236203	5.642369	31.704953	20.241791	9.120711	4.220779	34.461407	22.087305	-1.701176	-3.832833	50.866062	33.659437	-21.444321	-7.279249	60.260175	49.985203
-0.905000	-1.782892	-2.032873	94.941017	-0.008009	-0.271951	0.012069	89.907704	1.017632	-1.203169	25.925467	2.624703	-18.189635	-32.515391	20.266859	5.643993	31.673595	20.206841	9.184337	4.218860	34.402680	22.033802	-1.653674	-3.829318	50.827366	33.646341	-21.435692	-7.274472	60.266187	50.005504
-0.895000	-1.782892	-2.032873	94.941017	-0.008007	-0.271935	0.012053	89.913037	1.020182	-1.209159	25.914752	2.654924	-18.193488	-32.477847	20.295917	5.644288	31.647329	20.186922	9.244926	4.217257	34.353775	21.998750	-1.611864	-3.823441	50.811080	33.637784	-21.433343	-7.284931	60.307851	50.021447
-0.885000	-1.782892	-2.032873	94.941017	-0.007992	-0.271911	0.012021	89.915083	1.029108	-1.212538	25.905963	2.691086	-18.188330	-32.457568	20.314724	5.643320	31.633141	20.190812	9.293690	4.216891	34.323746	21.989711	-1.579074	-3.816357	50.821206	33.636698	-21.432933	-7.310255	60.378735	50.029076
-0.875000	-1.782892	-2.032873	94.941017	-0.007966	-0.271885	0.011977	89.917973	1.044846	-1.215098	25.908353	2.723445	-18.177662	-32.469014	20.317357	5.640989	31.636215	20.219266	9.326182	4.217557	34.315105	22.005506	-1.556754	-3.809623	50.854579	33.644078	-21.427293	-7.344400	60.466651	50.031931
